{"title":"Colombiana *2011* [TS.XviD-miguel] [ENG]","uid":6644875,"size":1479067837,"categoryP":"video","categoryS":"movies","magnet":"?xt=urn:btih:2bcad682ccbe558044934f132b69eb44aaf099da&amp;dn=Colombiana+%2A2011%2A+%5BTS.XviD-miguel%5D+%5BENG%5D&amp;tr=udp%3A%2F%2Ftracker.openbittorrent.com%3A80&amp;tr=udp%3A%2F%2Fopen.demonii.com%3A1337&amp;tr=udp%3A%2F%2Ftracker.coppersurfer.tk%3A6969&amp;tr=udp%3A%2F%2Fexodus.desync.com%3A6969","seeders":3,"leechers":0,"uploader":"miguel1983","files":-1,"time":1314907087,"description":" &lt;a href=&quot;http://img834.imageshack.us/img834/41/colombiana2011.jpg&quot; rel=&quot;nofollow&quot; target=&quot;_NEW&quot;&gt;http://img834.imageshack.us/img834/41/colombiana2011.jpg&lt;/a&gt;\n\nCountry.......: USA, France\nGenre.........: Thriller, Drama, Adventure, Action\nDate release..: 26.07.2011 [World]\nDirector......: Olivier Megaton\nWriters.......: Luc Besson, Robert Mark Kamen\nDuration......: 104 min.\nMore..........: http://www.imdb.com/title/tt1657507\nTrailer.......: http://www.imdb.com/video/imdb/vi1627823385\nTrailer.......:\n\nPilot :\nA young woman, after witnessing her parents' murder as a child in Bogota, grows up to be a stone-cold assassin.\n\nCats :\nZoe Saldana   \t ...  \tCataleya\nJordi Molla \t... \tMarco\nLennie James \t... \tRoss\nAmandla Stenberg \t... \tCat 10\nMichael Vartan \t... \tDanny Delanay\nCliff Curtis \t... \tEmilio Restrepo\nBeto Benites \t... \tDon Luis\nJesse Borrego \t... \tFabio\nCynthia Addai Robinson \t... \tAlicia\nAngel Garnica \t... \tPepe\nOfelia Medina \t... \tMama\nCallum Blue \t... \tRichard\nSam Douglas \t... \tWilliam Woogard\nGraham McTavish \t... \tHead Marshall Warren\nCharles Maquignon \t... \tSergeant Bill Attwood \n\nData Technical :\n!!! SAMPLE !!!\nAudio.....: English\nSubtitles.: None\nFormat                           : AVI\nFormat/Info                      : Audio Video Interleave\nFile size                        : 1.37 GiB\nDuration                         : 1h 43mn\nOverall bit rate                 : 1 889 Kbps\nWriting library                  : VirtualDub build 30586/release\nVideo\nID                               : 0\nFormat                           : MPEG-4 Visual\nFormat profile                   : Advanced Simple@L5\nFormat settings, BVOP            : Yes\nFormat settings, QPel            : No\nFormat settings, GMC             : No warppoints\nFormat settings, Matrix          : Default (MPEG)\nMuxing mode                      : Packed bitstream\nCodec ID                         : XVID\nCodec ID/Hint                    : XviD\nDuration                         : 1h 43mn\nBit rate                         : 1 749 Kbps\nWidth                            : 640 pixels\nHeight                           : 288 pixels\nDisplay aspect ratio             : 2.222\nFrame rate                       : 29.970 fps\nColor space                      : YUV\nChroma subsampling               : 4:2:0\nBit depth                        : 8 bits\nScan type                        : Progressive\nBits/(Pixel*Frame)               : 0.317\nStream size                      : 1.27 GiB (93%)\nWriting library                  : XviD 64\nAudio\nID                               : 1\nFormat                           : MPEG Audio\nFormat version                   : Version 1\nFormat profile                   : Layer 3\nMode                             : Joint stereo\nMode extension                   : MS Stereo\nCodec ID                         : 55\nCodec ID/Hint                    : MP3\nDuration                         : 1h 43mn\nBit rate mode                    : Constant\nBit rate                         : 128 Kbps\nChannel(s)                       : 2 channels\nSampling rate                    : 44.1 KHz\nStream size                      : 95.2 MiB (7%)\nAlignment                        : Split accross interleaves\nInterleave, duration             : 33 ms (1.00 video frame)\nInterleave, preload duration     : 500 ms\n\nScreen : &lt;a href=&quot;\nhttp://img15.imageshack.us/img15/666/colombiana2011s1.jpg&quot; rel=&quot;nofollow&quot; target=&quot;_NEW&quot;&gt;\nhttp://img15.imageshack.us/img15/666/colombiana2011s1.jpg&lt;/a&gt; &lt;a href=&quot;\nhttp://img853.imageshack.us/img853/2012/colombiana2011s2.jpg&quot; rel=&quot;nofollow&quot; target=&quot;_NEW&quot;&gt;\nhttp://img853.imageshack.us/img853/2012/colombiana2011s2.jpg&lt;/a&gt; &lt;a href=&quot;\nhttp://img836.imageshack.us/img836/6282/colombiana2011s3.jpg&quot; rel=&quot;nofollow&quot; target=&quot;_NEW&quot;&gt;\nhttp://img836.imageshack.us/img836/6282/colombiana2011s3.jpg&lt;/a&gt; &lt;a href=&quot;\nhttp://img823.imageshack.us/img823/3971/colombiana2011s4.jpg&quot; rel=&quot;nofollow&quot; target=&quot;_NEW&quot;&gt;\nhttp://img823.imageshack.us/img823/3971/colombiana2011s4.jpg&lt;/a&gt; &lt;a href=&quot;\nhttp://img13.imageshack.us/img13/5167/colombiana2011s5.jpg&quot; rel=&quot;nofollow&quot; target=&quot;_NEW&quot;&gt;\nhttp://img13.imageshack.us/img13/5167/colombiana2011s5.jpg&lt;/a&gt;","torrent":{"xt":"urn:btih:2bcad682ccbe558044934f132b69eb44aaf099da","amp;dn":"Colombiana+%2A2011%2A+%5BTS.XviD-miguel%5D+%5BENG%5D","amp;tr":["udp%3A%2F%2Ftracker.openbittorrent.com%3A80","udp%3A%2F%2Fopen.demonii.com%3A1337","udp%3A%2F%2Ftracker.coppersurfer.tk%3A6969","udp%3A%2F%2Fexodus.desync.com%3A6969"],"infoHash":"2bcad682ccbe558044934f132b69eb44aaf099da","infoHashBuffer":{"type":"Buffer","data":[43,202,214,130,204,190,85,128,68,147,79,19,43,105,235,68,170,240,153,218]},"announce":[],"urlList":[]}}